<svg xmlns="http://www.w3.org/2000/svg" viewBox="0 0 512 512" width="512" height="512">
  <rect width="512" height="512" rx="96" fill="#1a1008"/>
  <rect x="12" y="12" width="488" height="488" rx="86" fill="none" stroke="#ff6a2a" stroke-width="6" opacity="0.45"/>
  <g transform="translate(256,256) rotate(-45)" fill="none" stroke="#ff6a2a" stroke-width="18" stroke-linecap="round" stroke-linejoin="round">
    <!-- Handle -->
    <line x1="0" y1="30" x2="0" y2="160"/>
    <path d="M-12,160 Q0,175 12,160" />
    <!-- Head block -->
    <rect x="-22" y="-2" width="44" height="34" rx="6" />
    <!-- Left pick blade -->
    <path d="M-22,8 C-60,-15 -115,-8 -140,16" />
    <path d="M-22,24 C-55,10 -110,18 -130,28" />
    <!-- Right pick blade -->
    <path d="M22,8 C60,-15 115,-8 140,16" />
    <path d="M22,24 C55,10 110,18 130,28" />
  </g>
</svg>
